<?xml version="1.0" encoding="UTF-8"?><svg id="Layer_1" xmlns="http://www.w3.org/2000/svg" viewBox="0 0 77.95 224.2"><defs><style>.cls-1,.cls-2{fill:#fac46a;}.cls-2{font-family:Alegreya-Regular, Alegreya;font-size:24px;}</style></defs><g><path class="cls-1" d="M53.38,26.6c-.27,2.39-.4,4.65-.67,7.05-.27,2.53-.67,4.92-1.2,7.45-.67,3.19-2,6.12-3.87,8.78-.4,.53-.53,1.06-.27,1.86,1.34,4.12,3.47,7.71,6.41,10.9,3.61,3.99,6.95,8.24,9.89,12.9,3.74,5.85,6.55,12.23,8.42,18.88,1.47,5.05,2.94,10.11,3.87,15.29,1.2,6.38,1.6,12.9,.94,19.41-.53,5.19-.94,10.37-1.47,15.69v.4c-.13,.13-.67,.13-.67,0,0-.8,0-1.46,.13-2.26,.4-4.26,.8-8.51,1.2-12.9,.4-4.79,.53-9.57,0-14.23-.67-5.98-2-11.7-3.74-17.55-1.2-4.39-2.54-8.78-4.41-13.03-1.6-3.59-3.47-6.91-5.61-10.11-2.67-4.12-5.61-7.85-8.82-11.44-1.87-2.13-3.34-3.99-4.54-6.12-.67-1.2-1.2-2.39-1.74-3.59-.27-.66-.53-1.46-.94-2.13-.27-.66-.27-1.2,.13-1.86,.67-.93,1.34-1.86,1.87-2.79,1.47-2.53,2.27-5.32,2.81-8.24,.67-4.12,1.34-8.24,1.34-12.37,0-3.86-.4-7.85-1.87-11.44-1.87-5.05-5.21-9.04-9.75-11.97-1.47-.93-3.07-1.46-4.68-2.26-.27-.13-.67-.27-.94-.4-.13-.13-.27-.4-.13-.4,0-.13,.53-.13,.67-.13,9.75,3.06,15.76,11.97,16.83,20.08,.4,2.13,.67,4.39,.8,6.52Z"/><path class="cls-1" d="M42.43,40.03c-.8,0-1.07,.13-1.07,.4-.13,.53,.27,1.2,.8,1.6,.67,.27,1.34,.27,1.74-.27,.4-.53,.27-1.06-.27-1.33-.53-.27-.94-.4-1.2-.4ZM4.35,74.34c.67,1.33,1.6,2.66,2.81,3.72,1.6,1.33,3.47,1.46,5.34,.93,.67-.13,1.34-.53,2-.8,5.21-2.66,9.89-5.98,14.43-9.44,3.47-2.66,6.55-5.85,9.08-9.57,.67-.93,1.07-2.13,1.2-3.19,.13-2.13,.4-4.39,.53-6.52,0-1.2-.13-2.39-.13-3.59v-.53c0-.53,.4-.66,.8-.4,.27,.27,.67,.53,.94,.93,.67,.8,1.47,1.06,2.54,.8,1.2-.27,2-.93,2.54-1.86,1.34-2.13,2.27-4.52,2.54-7.05,.27-1.6,.4-3.19,.53-4.65,.13-.93-.13-1.73-.53-2.66-.4-.8-.94-1.06-1.87-1.06-1.07,0-2,.4-2.81,1.2-1.2,1.2-2.14,2.53-2.67,4.12,0,.13-.13,.4-.13,.53,.13,.13,1.07,.13,1.47,0,.4-.13,.94-.27,1.34-.27,.53,0,.94,.27,1.07,.8,.27,.8,.27,1.6,0,2.39-.27,.8-.8,1.06-1.6,.93-.27,0-.67-.13-.94-.13h-.94v.27c.53,.13,1.2,.13,1.74,.4,.8,.27,1.34,.8,1.34,1.46,0,.93-.53,1.73-1.47,1.86-1.2,.27-2.27-.27-2.81-1.33-.13-.13-.13-.4-.27-.66-.27,.53-.53,1.06-.8,1.6-.13,.13-.13,.4-.27,.66-.13,.13-.27,.27-.4,.13-.13-.13-.27-.27-.27-.4s0-.27,.13-.4c.27-.93,.8-1.73,1.47-2.39,.27-.27,.4-.53,.67-.8,.53-.93,1.07-1.33,2.14-1.2,.4,0,.67,.13,1.07,.27,.53,.13,.8-.13,.8-.53,.13-.53,.27-1.33-.13-1.73-.4-.4-.94,0-1.47,.13-.4,.13-.94,.27-1.34,.4-.8,.13-1.07-.27-.94-1.06,.13-.53,.27-1.06,.4-1.6,.53-1.46,1.47-2.66,2.54-3.72,.8-.93,2-1.33,3.21-1.46,1.34-.13,2.27,.27,2.94,1.46,.67,1.33,.8,2.79,.53,4.26-.13,1.73-.4,3.32-.8,5.05-.4,2.26-1.47,4.39-2.67,6.25-.94,1.33-2.27,1.86-3.87,1.86-.67,0-1.34-.27-1.87-.8-.13-.13-.27-.4-.27-.53-.13,0-.13,.13-.27,.13v.8c-.13,2.93-.27,5.85-.4,8.78-.13,1.46-.53,2.79-1.47,3.99-2.81,3.86-6.01,7.31-10.02,10.11-2.81,1.99-5.74,4.12-8.68,5.98-1.87,1.2-3.87,2.26-5.74,3.32-1.87,.93-3.87,.93-5.88,.27-.94-.27-1.74-.93-2.4-1.73-1.34-1.46-2.14-3.19-3.07-4.92-.27-.53-.67-1.06-1.07-1.73-.13-.13,.27-.66,.4-.53"/><path class="cls-1" d="M.88,114.36c-.13-3.59,.13-7.05,.94-10.51,.67-2.79,1.74-5.32,3.47-7.71,2.14-2.93,4.94-5.05,8.42-6.38,1.87-.8,3.87-1.46,5.88-2.13,3.74-1.33,7.35-2.79,10.69-4.65,1.74-.93,3.47-1.86,5.08-2.93,.4-.27,.8-.53,1.2-.93,1.34-1.46,2.54-2.93,3.87-4.26,0-.13,.53-.4,.67-.27,.13,.13,.13,.4,0,.53-.13,.27-.4,.66-.67,.93-1.2,1.33-2.27,2.53-3.47,3.86-.27,.4-.67,.66-1.07,.93-3.47,1.99-6.95,3.99-10.55,5.45-3.47,1.46-7.08,2.66-10.69,3.99-4.54,1.6-7.88,4.52-10.02,8.64-1.34,2.26-2,4.65-2.4,7.18-.94,5.98-.94,11.84,.13,17.82,.53,2.79,1.47,5.45,2.27,8.11,.8,2.53,1.74,5.19,2.67,7.58,.8,1.99,1.74,3.99,2.67,5.98,.13,.27,.27,.4,.27,.66,0,.13,0,.4-.13,.4s-.4,0-.53-.13c-.13-.13-.27-.4-.4-.66-1.34-2.39-2.4-4.92-3.21-7.58-1.2-3.72-2.67-7.45-3.74-11.3-.8-3.19-1.34-6.38-1.47-9.57,.13-.93,.13-1.99,.13-3.06Z"/><path class="cls-1" d="M42.02,120.61c.13,.27,.27,.66,.4,.93,1.47,3.99,2.94,7.98,4.41,11.84,1.47,3.72,2.4,7.58,2.94,11.44,.13,1.33,.53,2.66,.8,4.12,0,.13,.13,.4,.13,.53s-.53,.27-.67,.27c-.13-.27-.13-.53-.27-.8-.4-2.26-.8-4.65-1.2-6.91-.53-3.46-1.74-6.65-2.94-9.97-1.2-3.59-2.54-7.18-3.74-10.77,0-.13,0-.27-.13-.4q.13-.27,.27-.27Z"/><path class="cls-1" d="M26.13,73.54c2.54,1.33,4.54,3.32,5.74,5.98,0,.13,.13,.27,.13,.4,0,.27,0,.53-.13,.66-.27,.13-.4,0-.53-.27,0,0-2.94-4.52-5.34-5.72-.13-.13-.4-.27-.53-.4s-.13-.27-.13-.4c-.13-.4,.67-.4,.8-.27Z"/></g><g><text class="cls-2" transform="translate(0 186.14)"><tspan x="0" y="0">G</tspan></text><text class="cls-2" transform="translate(19.61 186.14)"><tspan x="0" y="0">L</tspan></text><text class="cls-2" transform="translate(35.38 186.14)"><tspan x="0" y="0">O</tspan></text><text class="cls-2" transform="translate(55.58 186.14)"><tspan x="0" y="0">W</tspan></text><path class="cls-1" d="M25.79,206.44c-.15-.15-.44-.15-.59,0-1.12,1.17-2.33,1.69-3.23,1.41-.75-.22-1.28-.99-1.52-2.24-.04-.2-.22-.35-.42-.35-.22,.02-.4,.18-.42,.37-.31,2.22-1.65,5.52-2.2,5.87-.07-.07-.18-.26-.26-.79-.13-.66-.18-1.52-.18-2.05,0-.18-.13-.35-.31-.4-.2-.07-.37,.02-.48,.18-1.43,2.24-2.05,3.12-2.55,3.61-.24,.22-.4,.26-.44,.22-.4-.24-.68-2.64,.9-7.04,.09-.22-.04-.46-.26-.55-.22-.07-.46,.04-.53,.26-1.43,3.94-1.67,7.33-.57,8.05,.11,.07,.29,.13,.48,.13,.26,0,.59-.11,.99-.46,.46-.44,.99-1.12,1.98-2.66,.04,.31,.07,.59,.13,.88,.07,.37,.31,1.5,1.08,1.47,.44,0,1.06-.33,1.98-2.75,.29-.75,.55-1.58,.75-2.33,.46,.86,1.1,1.23,1.61,1.39,1.21,.37,2.71-.22,4.07-1.63,.18-.15,.18-.42,0-.59Z"/><path class="cls-1" d="M47.93,206.42c-.2,0-.37-.02-.57-.02,.92-1.78,1.85-3.59,2.73-5.35,2.22-4.38,4.95-9.77,5.96-10.76,.02,.46-.04,1.69-.79,4.99-.26,1.25-.77,3.3-1.34,5.68-.48,2.02-.95,3.87-1.34,5.57-1.23-.02-2.77-.07-4.64-.11Zm10.1,.48c-.2-.15-.9-.22-4.6-.33,.46-1.89,.9-3.74,1.3-5.41,.57-2.38,1.08-4.44,1.36-5.7,.42-1.89,.66-3.28,.77-4.25,.09-.99,.04-1.69-.46-1.87-1.01-.35-2.33,1.98-7.06,11.33-.95,1.87-1.94,3.81-2.93,5.7-3.17-.09-6.09-.15-6.51-.24-.24-.04-.46,.09-.51,.33-.04,.22,.11,.44,.33,.48,.46,.11,2.66,.18,6.27,.26-1.78,3.39-3.52,6.47-4.91,8.34-.73,.99-1.41,1.32-2.02,.95-1.63-.95-2.88-6.53-1.19-10.34,1.45-3.28,4.25-3.17,6.34-2.51,.22,.07,.46-.07,.53-.29,.07-.22-.04-.46-.29-.53-3.41-1.08-6.03-.02-7.35,2.99-1.67,3.74-.81,10.05,1.54,11.42,.59,.33,1.78,.64,3.12-1.19,1.47-1.98,3.3-5.26,5.15-8.82,.33,.02,.66,.02,.99,.02,1.45,.04,3.01,.09,4.47,.13-3.41,14.52-3.41,16.43-2.62,16.76,.09,.02,.15,.04,.22,.04,.44,0,.81-.55,1.12-1.08,.11-.2,.04-.46-.15-.59-.2-.11-.46-.04-.57,.15-.09,.13-.15,.24-.22,.33,0-.79,.24-2.82,1.34-7.99,.53-2.4,1.12-5.04,1.74-7.61,2.24,.07,4.03,.13,4.38,.22,.04,.02,.11,.04,.18,.04,.13,0,.26-.07,.33-.18,.13-.2,.09-.46-.09-.59Z"/><path class="cls-1" d="M60.07,204.9c.31-1.19,1.34-2.29,1.8-2.55-.04,.35-.29,1.34-1.69,3.78-.15-.24-.26-.62-.11-1.23Zm8.89,1.52c-.22-.11-.48-.02-.57,.2-2.53,5.32-4.93,8.05-5.46,7.96-.04-.02-.81-.77,1.67-8.4,.07-.2,.22-.66-.13-.9-.33-.26-.7-.02-1.32,.4-.66,.42-1.56,1.01-2.27,.92,2.24-3.87,2.02-4.73,1.52-5.06-.79-.46-1.94,.88-2.46,1.65-1.08,1.67-1.06,3.19,.09,3.96,1.17,.81,2.68-.18,3.59-.77t.04-.04c-.86,2.71-1.41,4.84-1.61,6.31-.24,1.63-.07,2.49,.55,2.73,.11,.02,.2,.04,.31,.04,1.76,0,4.82-5.41,6.25-8.43,.09-.22,0-.48-.2-.57Z"/><path class="cls-1" d="M69.31,204.62c1.12,.07,1.1-1.34,.2-1.03-.46,.13-1.06,.99-.2,1.03Zm5.19,1.78c-.2-.13-.44-.07-.57,.13-1.47,2.38-3.94,4.62-4.69,4.31-.09-.04-.79-.46,.18-4.18,.04-.24-.09-.46-.31-.53-.24-.04-.46,.09-.53,.31-.79,3.1-.68,4.75,.31,5.17,.15,.07,.31,.09,.46,.09,1.65,0,4.18-2.95,5.3-4.73,.11-.2,.04-.46-.15-.57Z"/></g></svg>